<?xml version="1.0" encoding="UTF-8"?>
<svg version="1.1" xmlns="http://www.w3.org/2000/svg" width="307" height="307">
<path d="M0 0 C101.31 0 202.62 0 307 0 C307 101.31 307 202.62 307 307 C205.69 307 104.38 307 0 307 C0 205.69 0 104.38 0 0 Z " fill="#FEFEFE" transform="translate(0,0)"/>
<path d="M0 0 C5.51290236 2.15015093 10.50018976 5.33500506 15.50488281 8.45556641 C18.99639957 10.61675379 22.54526665 12.67540069 26.09179688 14.74462891 C28.88049803 16.37822069 31.65613548 18.03224521 34.4296875 19.69140625 C38.14116998 21.90825766 41.87476049 24.07795071 45.6328125 26.21484375 C46.53531738 26.73578613 47.43782227 27.25672852 48.36767578 27.79345703 C50.06422212 28.77248795 51.76790025 29.73931284 53.47998047 30.69091797 C59.02635953 33.92446741 62.63707641 37.52215582 66 43 C66.34858063 43.56296783 66.69716125 44.12593567 67.05630493 44.70596313 C68.31699607 47.77058861 68.26930161 50.33274476 68.29052734 53.64526367 C68.29724457 54.30438751 68.30396179 54.96351135 68.31088257 55.64260864 C68.32984997 57.81780585 68.33378676 59.99269401 68.3359375 62.16796875 C68.3423688 63.68768946 68.34909741 65.20740894 68.35610962 66.72712708 C68.36808101 69.91389838 68.37179084 73.10056132 68.37060547 76.28735352 C68.37040285 80.35139828 68.39764513 84.41473922 68.43214989 88.47861767 C68.45450374 91.6195437 68.45844035 94.76030303 68.45738602 97.90130043 C68.45973153 99.39828212 68.46849539 100.89526915 68.48405075 102.39217186 C68.57492478 112.04470922 68.13454781 119.89261742 61.875 127.625 C56.13820653 132.36409026 49.97082994 136.46118374 43.6875 140.4375 C42.90761719 140.93121094 42.12773437 141.42492187 41.32421875 141.93359375 C38.64499275 143.16288568 36.91547031 143.35649804 34 143 C32 141 32 141 31.60546875 138.5859375 C32 136 32 136 33.80078125 134.2265625 C34.62964844 133.69804687 35.45851563 133.16953125 36.3125 132.625 C37.21871094 132.03203125 38.12492187 131.4390625 39.05859375 130.828125 C41.02705091 129.60470143 42.99843811 128.38598024 44.97265625 127.171875 C45.93042969 126.57890625 46.88820312 125.9859375 47.875 125.375 C48.75929687 124.84648437 49.64359375 124.31796875 50.5546875 123.7734375 C54.25526387 121.08963291 56.5526959 118.34191229 58 114 C58.09899748 111.98703992 58.13826357 109.97094721 58.14526367 107.95556641 C58.15164352 106.71062408 58.15802338 105.46568176 58.16459656 104.18301392 C58.16612539 102.82253051 58.16723927 101.46204657 58.16796875 100.1015625 C58.17118266 98.70535243 58.17454683 97.30914271 58.17805481 95.91293335 C58.18404231 92.98589294 58.18589512 90.05888204 58.18530273 87.13183594 C58.18520119 83.38706579 58.19884732 79.64248556 58.21607494 75.89776039 C58.22721184 73.0135105 58.22922142 70.12930627 58.22869301 67.24503708 C58.22987081 65.86478395 58.23428137 64.48452955 58.24202538 63.10429764 C58.25185785 61.17063095 58.24767457 59.23690849 58.24291992 57.30322266 C58.24434494 56.2041861 58.24576996 55.10514954 58.24723816 53.97280884 C57.87702581 49.52134977 56.85291948 46.86458334 53.71484375 43.68359375 C48.40250986 39.56425002 42.38207083 36.40237973 36.5625 33.0625 C33.95239222 31.55818771 31.34451558 30.05007521 28.73828125 28.5390625 C28.08548187 28.1608989 27.4326825 27.78273529 26.76010132 27.39311218 C22.54591689 24.93839616 18.4060024 22.3942519 14.29296875 19.7734375 C13.2680835 19.1249585 12.24319824 18.47647949 11.18725586 17.80834961 C9.28038828 16.59379335 7.38333145 15.36364254 5.49829102 14.11547852 C0.87917107 11.19160716 -3.03423792 8.9626357 -8.61425781 9.38842773 C-13.90173562 10.74384443 -18.39196966 13.72520922 -23 16.5625 C-24.71329806 17.58597598 -26.42659844 18.6094481 -28.14004517 19.63267517 C-29.91253091 20.69595436 -31.6790455 21.76857341 -33.44433594 22.84375 C-36.93712946 24.96831911 -40.45424054 27.04987447 -43.9765625 29.125 C-46.1932089 30.43665443 -48.4093728 31.74912469 -50.625 33.0625 C-51.64851563 33.66843994 -52.67203125 34.27437988 -53.7265625 34.89868164 C-63.98128737 40.6831251 -63.98128737 40.6831251 -72 49 C-72.31216234 51.97088189 -72.31216234 51.97088189 -72.2746582 55.39575195 C-72.27976913 56.0400415 -72.28488007 56.68433105 -72.29014587 57.34814453 C-72.30404611 59.47828463 -72.30308435 61.60810118 -72.30078125 63.73828125 C-72.30466898 65.22177755 -72.30900381 66.70527273 -72.31376648 68.18876648 C-72.32123035 71.29995325 -72.320937 74.41102657 -72.31567383 77.5222168 C-72.30988987 81.50016018 -72.32678293 85.47763633 -72.3500185 89.45550251 C-72.36478804 92.52081498 -72.365623 95.5860159 -72.36250877 98.65135765 C-72.36302073 100.11731069 -72.36823491 101.58327018 -72.37832069 103.04918861 C-72.39072591 105.10511734 -72.38386938 107.16014894 -72.37231445 109.21606445 C-72.37294388 110.38393997 -72.3735733 111.55181549 -72.3742218 112.75508118 C-71.84079361 117.38049633 -70.58376887 120.71540189 -66.9152832 123.69091797 C-66.13499756 124.12033691 -65.35471191 124.54975586 -64.55078125 124.9921875 C-63.70322266 125.46914062 -62.85566406 125.94609375 -61.98242188 126.4375 C-61.10134766 126.911875 -60.22027344 127.38625 -59.3125 127.875 C-58.41982422 128.37257812 -57.52714844 128.87015625 -56.60742188 129.3828125 C-54.41262281 130.60344941 -52.21061572 131.80832257 -50 133 C-49.99191315 131.90197052 -49.98382629 130.80394104 -49.97549438 129.67263794 C-49.89812744 119.34242245 -49.8104124 109.0123402 -49.71247292 98.68229866 C-49.6624521 93.37107091 -49.61612273 88.05986361 -49.578125 82.74853516 C-49.5413451 77.62617629 -49.49500538 72.5039862 -49.44193649 67.38177109 C-49.42335363 65.42411118 -49.40826019 63.46641504 -49.39665604 61.50870132 C-49.37985993 58.77401564 -49.3508416 56.03971983 -49.31884766 53.30517578 C-49.31668747 52.48950134 -49.31452728 51.6738269 -49.31230164 50.83343506 C-49.22810432 45.22810432 -49.22810432 45.22810432 -47 43 C-44.90408325 42.73257446 -44.90408325 42.73257446 -42.28173828 42.70947266 C-41.29956329 42.69671295 -40.31738831 42.68395325 -39.30545044 42.67080688 C-38.23785492 42.66858124 -37.1702594 42.66635559 -36.0703125 42.6640625 C-34.96960419 42.6574057 -33.86889587 42.6507489 -32.73483276 42.64389038 C-30.39615553 42.63374351 -28.05744922 42.62907399 -25.71875 42.62939453 C-22.17397652 42.62505989 -18.63048726 42.5888681 -15.0859375 42.55078125 C-12.80990007 42.54490551 -10.53385674 42.54094119 -8.2578125 42.5390625 C-6.68678268 42.51750595 -6.68678268 42.51750595 -5.08401489 42.49551392 C7.0779435 42.56933845 16.94751614 46.17713189 25.6796875 54.625 C32.88036524 62.36304175 34.717128 69.84470433 34.37109375 80.3515625 C33.34445852 90.44500782 28.46036852 97.27828183 21 104 C14.93680187 108.13908359 8.01728525 109.86907708 0.7734375 110.55078125 C-0.12197754 110.63626221 -1.01739258 110.72174316 -1.93994141 110.80981445 C-2.61976074 110.87257568 -3.29958008 110.93533691 -4 111 C1.81832041 117.00412074 7.6582692 122.98599774 13.52665615 128.94115353 C16.2512837 131.70743762 18.9680115 134.48061873 21.66772461 137.27124023 C24.27606046 139.96684318 26.90376778 142.64211355 29.5457325 145.30475044 C30.54748081 146.32121982 31.54219096 147.34467788 32.52941704 148.37525749 C38.66151744 155.13624215 38.66151744 155.13624215 46.96508789 157.98266602 C47.66106583 157.95552017 48.35704376 157.92837433 49.07411194 157.90040588 C52.70588409 158.08821697 54.55484975 160.49372099 57 163 C58.72589785 166.45179569 58.36043965 170.21866039 58 174 C56.27128428 178.18531174 54.16960522 180.23950002 50 182 C43.53675656 182.82072933 43.53675656 182.82072933 40.22265625 181.05078125 C36.91447279 178.48673685 34.94309604 176.05531298 34 172 C34.09724869 170.75180481 34.19449738 169.50360962 34.29469299 168.21759033 C34.30988633 164.63389676 34.00309553 164.00439672 31.79136658 160.86297607 C30.76795378 159.83167751 29.72241769 158.82203015 28.65991211 157.83105469 C28.09259872 157.27060455 27.52528534 156.71015442 26.94078064 156.13272095 C25.07055187 154.29343555 23.17422313 152.4836256 21.27734375 150.671875 C19.97248419 149.3946484 18.66974144 148.1152559 17.36903381 146.83380127 C13.94752524 143.47107414 10.50488794 140.13094074 7.05511475 136.79724121 C1.52574963 131.45163047 -3.98168881 126.08400538 -9.46832085 120.69455719 C-11.39146179 118.81514439 -13.33002018 116.95271762 -15.27027893 115.09100342 C-16.44391748 113.9451022 -17.61695993 112.79859002 -18.78930664 111.65136719 C-19.33524475 111.13597382 -19.88118286 110.62058044 -20.44366455 110.08956909 C-21.91835022 108.62908936 -21.91835022 108.62908936 -24 106 C-23.93147698 102.90495514 -23.20466148 102.20466148 -21 100 C-18.42138672 99.72875977 -18.42138672 99.72875977 -15.1796875 99.69140625 C-14.0040625 99.66626953 -12.8284375 99.64113281 -11.6171875 99.61523438 C-9.14588113 99.58040908 -6.67452256 99.54909041 -4.203125 99.52148438 C4.64516523 99.32389184 12.49289353 98.68785942 19 92 C22.86299251 85.55297872 24.99980959 79.55670039 24 72 C21.9202644 65.52755181 18.75332179 61.11117719 13.2578125 57.15625 C6.8951156 53.89784467 0.70250537 53.67336615 -6.30859375 53.5859375 C-7.75867577 53.55688828 -7.75867577 53.55688828 -9.23805237 53.5272522 C-12.30444713 53.46780809 -15.37088016 53.42121231 -18.4375 53.375 C-20.52540636 53.33678783 -22.6132975 53.29773424 -24.70117188 53.2578125 C-29.80065662 53.16213562 -34.90021511 53.07797545 -40 53 C-40.52103784 64.06544869 -40.88611611 75.12451904 -41.05958939 86.2011795 C-41.14493942 91.34765656 -41.2811111 96.4816349 -41.53955078 101.62255859 C-43.71775163 123.74928723 -43.71775163 123.74928723 -36.25268555 143.49121094 C-28.67215713 150.42096229 -17.49767166 155.6721305 -7.24786377 156.18933105 C-3.74329519 155.98503564 -1.88624424 155.24284233 1.125 153.5 C4.61270861 151.49428898 6.94062223 150.50795421 11 151 C13 153 13 153 13.38671875 155.42578125 C13 158 13 158 11.20703125 159.73046875 C10.41683594 160.21128906 9.62664062 160.69210938 8.8125 161.1875 C8.03519531 161.67605469 7.25789063 162.16460937 6.45703125 162.66796875 C-0.14217694 166.2455999 -6.556396 167.78446236 -14 166 C-21.08443186 163.21505218 -27.52381805 158.94781709 -34 155 C-36.1041081 153.74641128 -38.20962508 152.49518488 -40.31640625 151.24609375 C-44.61189098 148.69271159 -48.89318945 146.11776252 -53.1640625 143.5234375 C-56.65740156 141.40349007 -60.16222364 139.31490918 -63.7109375 137.2890625 C-72.17817718 132.43963432 -78.93435623 128.19455196 -82.38235474 118.60864258 C-83.77033322 112.74647542 -83.44969857 106.61979066 -83.43359375 100.625 C-83.43816274 99.13101974 -83.44347044 97.63704157 -83.44947815 96.14306641 C-83.45837722 93.02302471 -83.45602234 89.90323943 -83.44604492 86.78320312 C-83.4345488 82.80208486 -83.45479197 78.82185278 -83.48396206 74.84085083 C-83.50238166 71.75913964 -83.50202042 68.6776387 -83.49632454 65.59588623 C-83.49617208 64.12879186 -83.50215342 62.66168255 -83.51461601 61.19464111 C-83.58115215 52.08116045 -83.34142522 45.22182816 -77.28564453 37.93798828 C-71.57267138 33.14135029 -65.37933263 29.50068197 -58.875 25.875 C-57.1459946 24.895308 -55.41699962 23.91559617 -53.68901062 22.93411255 C-52.51815431 22.26937581 -51.34669483 21.60570037 -50.17463684 20.94308472 C-43.48978168 17.16010218 -36.89275955 13.23149585 -30.29443359 9.30029297 C-27.8678131 7.85844261 -25.43424247 6.42893129 -23 5 C-22.21117432 4.52393311 -21.42234863 4.04786621 -20.60961914 3.55737305 C-13.59078353 -0.56031441 -8.13419132 -1.64146518 0 0 Z " fill="#15A2C0" transform="translate(156,55)"/>
<path d="M0 0 C2.625 0.375 2.625 0.375 5 1 C5.042721 2.66611905 5.04063832 4.33382885 5 6 C4 7 4 7 1.4375 7.0625 C0.2309375 7.0315625 0.2309375 7.0315625 -1 7 C-1.625 4.625 -1.625 4.625 -2 2 C-1.34 1.34 -0.68 0.68 0 0 Z " fill="#F5FBFB" transform="translate(201,221)"/>
</svg>
